<?xml version="1.0" encoding="utf-8"?>
<!-- Generator: Adobe Illustrator 21.0.0, SVG Export Plug-In . SVG Version: 6.00 Build 0)  -->
<svg version="1.1" id="Capa_1" xmlns="http://www.w3.org/2000/svg" xmlns:xlink="http://www.w3.org/1999/xlink" x="0px" y="0px"
	 viewBox="0 0 562.9 477.7" style="enable-background:new 0 0 562.9 477.7;" xml:space="preserve">
<style type="text/css">
	.st0{fill:#1E88E5;}
	.st1{fill:#64B5F6;}
	.st2{fill:#2196F3;}
	.st3{fill:#EA9D2D;}
	.st4{fill:#D68F29;}
	.st5{fill:#FBB540;}
	.st6{fill:#DC4D41;}
	.st7{fill:#EA6B65;}
</style>
<path class="st0" d="M499.6,322.1c-10.1,12.2-25.1,19.2-41,19.2H53.3c-15.8,0-30.8-7-41-19.2l195.6-163l20.3,13.9
	c16.7,11.5,38.8,11.5,55.5,0l20.3-13.9L499.6,322.1z"/>
<path class="st1" d="M502.6,23.3L304,159.1L283.7,173c-16.7,11.5-38.8,11.5-55.5,0L208,159.1L9.4,23C19.4,8.6,35.8,0,53.3,0h405.3
	C476.3-0.1,492.8,8.6,502.6,23.3z"/>
<g>
	<path class="st2" d="M208,159.1l-195.6,163C4.4,312.6,0,300.5,0,288V53.3C-0.1,42.5,3.2,31.9,9.4,23L208,159.1z"/>
	<path class="st2" d="M512,53.3V288c0,12.5-4.4,24.6-12.4,34.1L304,159.1L502.6,23.3C508.8,32.1,512,42.6,512,53.3z"/>
</g>
<polygon class="st3" points="501.1,336.5 562.9,451.2 517.9,442.5 492.2,477.7 456.9,354.1 "/>
<path class="st4" d="M501.1,336.5L457,354.2l9.9,34.8c19.3-2,36.8-9.6,51.1-21.1L501.1,336.5z"/>
<polygon class="st5" points="412.8,336.5 351,451.2 396,442.5 421.6,477.7 456.9,354.1 "/>
<path class="st3" d="M447,388.9l9.9-34.8l-44.1-17.7l-16.9,31.3C410.2,379.3,427.7,387,447,388.9z"/>
<circle class="st6" cx="456.9" cy="292.3" r="70.6"/>
<circle class="st7" cx="456.9" cy="292.3" r="35.3"/>
</svg>
