<?xml version="1.0" encoding="utf-8"?>
<!-- Generator: Adobe Illustrator 21.0.0, SVG Export Plug-In . SVG Version: 6.00 Build 0)  -->
<svg version="1.1" id="Vrstva_1" xmlns="http://www.w3.org/2000/svg" xmlns:xlink="http://www.w3.org/1999/xlink" x="0px" y="0px"
	 viewBox="0 0 536.9 491" style="enable-background:new 0 0 536.9 491;" xml:space="preserve">
<style type="text/css">
	.st0{fill:#ECEFF1;}
	.st1{fill:#CFD8DC;}
	.st2{fill:#42A5F5;}
	.st3{fill:#2196F3;}
	.st4{fill:#607D8B;}
	.st5{fill:#546D79;}
	.st6{fill:#EA9D2D;}
	.st7{fill:#D68F29;}
	.st8{fill:#FBB540;}
	.st9{fill:#DC4D41;}
	.st10{fill:#EA6B65;}
</style>
<path class="st0" d="M453.3,0H58.7C26.3,0,0,26.3,0,58.7v266.7C0,357.7,26.3,384,58.7,384h394.7c32.4,0,58.7-26.3,58.7-58.7V58.7
	C512,26.3,485.7,0,453.3,0z"/>
<path class="st1" d="M256,0H58.7C26.3,0,0,26.3,0,58.7v266.7C0,357.7,26.3,384,58.7,384H256V0z"/>
<path class="st2" d="M160,85.3c29.4,0,53.3,23.9,53.3,53.3S189.4,192,160,192s-53.3-23.9-53.3-53.3S130.6,85.3,160,85.3z"/>
<path class="st2" d="M256,282.7c0,8.8-7.2,16-16,16H80c-8.8,0-16-7.2-16-16V272c0-32.4,26.3-58.7,58.7-58.7h74.7
	c32.4,0,58.7,26.3,58.7,58.7V282.7z"/>
<path class="st3" d="M160,85.3c-29.4,0-53.3,23.9-53.3,53.3S130.6,192,160,192V85.3z"/>
<path class="st3" d="M160,213.3h-37.3C90.3,213.3,64,239.6,64,272v10.7c0,8.8,7.2,16,16,16h80V213.3z"/>
<g>
	<path class="st4" d="M432,298.7H314.7c-8.8,0-16-7.2-16-16c0-8.8,7.2-16,16-16H432c8.8,0,16,7.2,16,16
		C448,291.5,440.8,298.7,432,298.7z"/>
	<path class="st4" d="M432,213.3H314.7c-8.8,0-16-7.2-16-16c0-8.8,7.2-16,16-16H432c8.8,0,16,7.2,16,16
		C448,206.2,440.8,213.3,432,213.3z"/>
	<path class="st4" d="M432,128H314.7c-8.8,0-16-7.2-16-16s7.2-16,16-16H432c8.8,0,16,7.2,16,16S440.8,128,432,128z"/>
</g>
<g>
	<path class="st5" d="M373.3,266.7h-58.7c-8.8,0-16,7.2-16,16c0,8.8,7.2,16,16,16h58.7V266.7z"/>
	<path class="st5" d="M373.3,181.3h-58.7c-8.8,0-16,7.2-16,16c0,8.8,7.2,16,16,16h58.7V181.3z"/>
	<path class="st5" d="M373.3,96h-58.7c-8.8,0-16,7.2-16,16s7.2,16,16,16h58.7V96z"/>
</g>
<polygon class="st6" points="475.1,349.8 536.9,464.5 491.9,455.8 466.2,491 430.9,367.4 "/>
<path class="st7" d="M475.1,349.8L431,367.5l9.9,34.8c19.3-2,36.8-9.6,51.1-21.1L475.1,349.8z"/>
<polygon class="st8" points="386.8,349.8 325,464.5 370,455.8 395.6,491 430.9,367.4 "/>
<path class="st6" d="M421,402.2l9.9-34.8l-44.1-17.7L369.9,381C384.2,392.6,401.7,400.3,421,402.2z"/>
<circle class="st9" cx="430.9" cy="305.6" r="70.6"/>
<circle class="st10" cx="430.9" cy="305.6" r="35.3"/>
</svg>
