<?xml version="1.0" encoding="utf-8"?>
<!-- Generator: Adobe Illustrator 21.0.0, SVG Export Plug-In . SVG Version: 6.00 Build 0)  -->
<svg version="1.1" id="Layer_1" xmlns="http://www.w3.org/2000/svg" xmlns:xlink="http://www.w3.org/1999/xlink" x="0px" y="0px"
	 viewBox="0 0 556.9 579" style="enable-background:new 0 0 556.9 579;" xml:space="preserve">
<style type="text/css">
	.st0{fill:#F3F3F3;}
	.st1{fill:#CED6E0;}
	.st2{fill:#415A6B;}
	.st3{fill:#55C0EB;}
	.st4{fill:#EA9D2D;}
	.st5{fill:#D68F29;}
	.st6{fill:#FBB540;}
	.st7{fill:#DC4D41;}
	.st8{fill:#EA6B65;}
</style>
<polygon class="st0" points="512,418.1 0,418.1 72.5,266.7 439.5,266.7 "/>
<path class="st1" d="M512,418.1L512,418.1H0l0,0c0,14.9,12.8,27.7,27.7,27.7h456.5C499.2,445.9,512,433.1,512,418.1z"/>
<g>
	<polygon class="st2" points="151.5,288 153.6,277.3 130.1,277.3 126.9,288 	"/>
	<polygon class="st2" points="394.7,288 419.2,288 414.9,277.3 390.4,277.3 	"/>
	<polygon class="st2" points="400,304 425.6,304 420.3,292.3 395.7,292.3 	"/>
	<polygon class="st2" points="217.6,288 218.7,277.3 195.2,277.3 193.1,288 	"/>
	<polygon class="st2" points="251.7,288 251.7,277.3 228.3,277.3 227.2,288 	"/>
	<polygon class="st2" points="184.5,288 186.7,277.3 163.2,277.3 160,288 	"/>
	<polygon class="st2" points="297.6,326.4 298.7,340.3 326.4,340.3 324.3,326.4 	"/>
	<polygon class="st2" points="371.2,326.4 374.4,340.3 402.1,340.3 397.9,326.4 	"/>
	<polygon class="st2" points="121.6,277.3 97.1,277.3 92.8,288 117.3,288 	"/>
	<polygon class="st2" points="104.5,326.4 77.9,326.4 71.5,340.3 99.2,340.3 	"/>
	<polygon class="st2" points="150.4,326.4 147.2,340.3 289.1,340.3 288,326.4 	"/>
	<polygon class="st2" points="109.9,308.3 84.3,308.3 78.9,322.1 105.6,322.1 	"/>
	<polygon class="st2" points="284.8,288 283.7,277.3 260.3,277.3 260.3,288 	"/>
	<polygon class="st2" points="114.1,326.4 109.9,340.3 137.6,340.3 140.8,326.4 	"/>
	<polygon class="st2" points="181.3,304 183.5,292.3 158.9,292.3 155.7,304 	"/>
	<polygon class="st2" points="406.4,322.1 433.1,322.1 427.7,308.3 402.1,308.3 	"/>
	<polygon class="st2" points="412.8,340.3 440.5,340.3 434.1,326.4 407.5,326.4 	"/>
	<polygon class="st2" points="225.1,308.3 225.1,322.1 250.7,322.1 251.7,308.3 	"/>
	<polygon class="st2" points="189.9,308.3 188.8,322.1 214.4,322.1 216.5,308.3 	"/>
	<polygon class="st2" points="154.7,308.3 151.5,322.1 178.1,322.1 180.3,308.3 	"/>
	<polygon class="st2" points="321.1,304 318.9,292.3 294.4,292.3 295.5,304 	"/>
	<polygon class="st2" points="356.3,304 353.1,292.3 328.5,292.3 330.7,304 	"/>
	<polygon class="st2" points="285.9,304 284.8,292.3 260.3,292.3 260.3,304 	"/>
	<polygon class="st2" points="251.7,304 251.7,292.3 227.2,292.3 226.1,304 	"/>
	<polygon class="st2" points="216.5,304 217.6,292.3 193.1,292.3 190.9,304 	"/>
	<polygon class="st2" points="145.1,308.3 119.5,308.3 115.2,322.1 141.9,322.1 	"/>
	<polygon class="st2" points="260.3,308.3 261.3,322.1 286.9,322.1 286.9,308.3 	"/>
	<polygon class="st2" points="364.8,304 390.4,304 387.2,292.3 361.6,292.3 	"/>
	<polygon class="st2" points="370.1,322.1 396.8,322.1 392.5,308.3 366.9,308.3 	"/>
	<polygon class="st2" points="385.1,288 381.9,277.3 358.4,277.3 360.5,288 	"/>
	<polygon class="st2" points="349.9,277.3 352,288 294.4,288 293.3,277.3 	"/>
	<polygon class="st2" points="295.5,308.3 297.6,322.1 323.2,322.1 322.1,308.3 	"/>
	<polygon class="st2" points="331.7,309.3 337.1,340.3 364.8,340.3 357.3,309.3 	"/>
	<polygon class="st2" points="150.4,292.3 91.7,292.3 86.4,304 147.2,304 	"/>
</g>
<polygon class="st1" points="315.7,401.1 196.3,401.1 220.8,352 291.2,352 "/>
<path class="st2" d="M72.5,22.4v244.3h366.9V22.4c0-11.7-9.6-22.4-22.4-22.4H94.9C82.1,0,72.5,10.7,72.5,22.4z"/>
<rect x="94.9" y="22.4" class="st3" width="322.1" height="222.9"/>
<polygon class="st4" points="495.1,437.8 556.9,552.5 511.9,543.8 486.2,579 450.9,455.4 "/>
<path class="st5" d="M495.1,437.8L451,455.5l9.9,34.8c19.3-2,36.8-9.6,51.1-21.1L495.1,437.8z"/>
<polygon class="st6" points="406.8,437.8 345,552.5 390,543.8 415.6,579 450.9,455.4 "/>
<path class="st4" d="M441,490.2l9.9-34.8l-44.1-17.7L389.9,469C404.2,480.6,421.7,488.3,441,490.2z"/>
<circle class="st7" cx="450.9" cy="393.6" r="70.6"/>
<circle class="st8" cx="450.9" cy="393.6" r="35.3"/>
</svg>
