<?xml version="1.0" encoding="utf-8"?>
<!-- Generator: Adobe Illustrator 21.0.0, SVG Export Plug-In . SVG Version: 6.00 Build 0)  -->
<svg version="1.1" id="Layer_1" xmlns="http://www.w3.org/2000/svg" xmlns:xlink="http://www.w3.org/1999/xlink" x="0px" y="0px"
	 viewBox="0 0 400.6 530" style="enable-background:new 0 0 400.6 530;" xml:space="preserve">
<style type="text/css">
	.st0{fill:#4A3F8D;}
	.st1{fill:#F7CAA5;}
	.st2{fill:#494F4F;}
	.st3{fill:#5F6768;}
	.st4{fill:#EDB288;}
	.st5{fill:#EA9D2D;}
	.st6{fill:#D68F29;}
	.st7{fill:#FBB540;}
	.st8{fill:#DC4D41;}
	.st9{fill:#EA6B65;}
</style>
<title>quality certification</title>
<path class="st0" d="M251,400.6H0v-45.5c0-3.4,0.3-6.8,1.1-10.2c0.1-0.6,0.3-1.2,0.5-1.8C6,327.8,17.8,315.7,33,310.9l66.7-21.6
	c25.2,13.6,55.6,13.6,80.9,0l54.5,17.7c-6.2,11.2-9.4,23.9-9.4,36.7C225.5,365.4,234.8,386.1,251,400.6z"/>
<path class="st1" d="M180.3,252.7c-41,22.3-92.3,7.1-114.6-33.9c-4.2-7.7-7.2-16.1-8.8-24.7L52.2,178v-0.1
	c-12.4-2.2-20.7-14-18.5-26.5c0.1-0.5,0.2-1,0.3-1.4c1.7-7.2,7.9-12.5,15.3-13.1v0.5c1.9,1.1,4,1.7,6.2,1.7
	c6.5,0,11.9-5.1,12.2-11.6l1.5-32.9c10.7,0.4,21.4,0.1,32.1-0.8c52,46.3,129.5,43.3,129.5,43.3v-0.2c7.4,0.6,13.5,5.9,15.2,13.1
	c3,12.2-4.5,24.6-16.7,27.6c-0.5,0.1-1,0.2-1.5,0.3v0.1l-4.8,16C218.4,219,202.7,240.5,180.3,252.7z"/>
<path class="st2" d="M230.7,136.8v0.2c0,0-77.5,3-129.4-43.3c16.4-1.2,32.8-3.9,48.7-8.2c0,0,25.6,32.9,80.8,36.4v14.9H230.7z"/>
<path class="st3" d="M49.3,136.8V90.7C49.3,40.6,89.9,0,140,0s90.7,40.6,90.7,90.7V122c-55.2-3.6-80.8-36.4-80.8-36.4
	c-15.9,4.2-32.3,6.9-48.7,8.2c-10.7,0.9-21.4,1.2-32.1,0.8l-1.5,32.9C67.4,133.9,62,139,55.5,139c-2.2,0-4.3-0.6-6.2-1.7V136.8z"/>
<path class="st4" d="M180.3,289.2h0.1c-25.2,13.6-55.6,13.6-80.9,0h0.1v-36.6c25.2,13.7,55.5,13.7,80.7,0V289.2z"/>
<polygon class="st5" points="338.8,388.7 400.6,503.5 355.6,494.8 330,530 294.7,406.4 "/>
<path class="st6" d="M338.8,388.7l-44.1,17.7l9.9,34.8c19.3-2,36.8-9.6,51.1-21.1L338.8,388.7z"/>
<polygon class="st7" points="250.5,388.7 188.7,503.5 233.7,494.8 259.4,530 294.7,406.4 "/>
<path class="st5" d="M284.7,441.2l9.9-34.8l-44.1-17.7L233.6,420C247.9,431.6,265.5,439.3,284.7,441.2z"/>
<circle class="st8" cx="294.7" cy="344.6" r="70.6"/>
<circle class="st9" cx="294.7" cy="344.6" r="35.3"/>
</svg>
