<?xml version="1.0" encoding="utf-8"?>
<!-- Generator: Adobe Illustrator 21.0.0, SVG Export Plug-In . SVG Version: 6.00 Build 0)  -->
<svg version="1.1" id="Capa_1" xmlns="http://www.w3.org/2000/svg" xmlns:xlink="http://www.w3.org/1999/xlink" x="0px" y="0px"
	 viewBox="0 0 574.9 562" style="enable-background:new 0 0 574.9 562;" xml:space="preserve">
<style type="text/css">
	.st0{fill:#455A64;}
	.st1{fill:#CFD8DC;}
	.st2{fill:#4CAF50;}
	.st3{fill:#2196F3;}
	.st4{fill:#EA9D2D;}
	.st5{fill:#D68F29;}
	.st6{fill:#FBB540;}
	.st7{fill:#DC4D41;}
	.st8{fill:#EA6B65;}
</style>
<path class="st0" d="M373.3,261c-5.9,0-10.7-4.8-10.7-10.7V101c0-5.9,4.8-10.7,10.7-10.7S384,95.2,384,101v149.3
	C384,256.3,379.2,261,373.3,261z"/>
<path class="st1" d="M53.3,239.7h405.3c29.5,0,53.3,23.9,53.3,53.3v42.7c0,29.5-23.9,53.3-53.3,53.3H53.3C23.9,389,0,365.1,0,335.7
	V293C0,263.6,23.9,239.7,53.3,239.7z"/>
<g>
	<circle class="st2" cx="74.7" cy="314.4" r="10.7"/>
	<circle class="st2" cx="138.7" cy="314.4" r="10.7"/>
	<circle class="st2" cx="202.7" cy="314.4" r="10.7"/>
	<circle class="st2" cx="266.7" cy="314.4" r="10.7"/>
</g>
<path class="st0" d="M437.3,325H330.7c-5.9,0-10.7-4.8-10.7-10.7s4.8-10.7,10.7-10.7h106.7c5.9,0,10.7,4.8,10.7,10.7
	S443.2,325,437.3,325z"/>
<g>
	<path class="st3" d="M343.2,141.9c-2.8,0-5.5-1.1-7.6-3.1c-20.8-20.8-20.8-54.6,0-75.4c0,0,0,0,0,0c4.1-4.2,10.8-4.4,15.1-0.3
		c4.2,4.1,4.4,10.8,0.3,15.1c-0.1,0.1-0.2,0.2-0.3,0.3c-12.5,12.5-12.5,32.8,0,45.3c0,0,0,0,0,0c4.2,4.2,4.2,10.9,0,15.1
		C348.7,140.8,346,141.9,343.2,141.9L343.2,141.9z"/>
	<path class="st3" d="M403.5,141.9c-5.9,0-10.7-4.8-10.7-10.6c0-2.8,1.1-5.6,3.1-7.6c12.5-12.5,12.5-32.8,0-45.3c0,0,0,0,0,0
		c-4.1-4.2-4-11,0.3-15.1c4.1-4,10.7-4,14.8,0c20.8,20.8,20.8,54.6,0,75.4c0,0,0,0,0,0C409,140.8,406.3,141.9,403.5,141.9z"/>
	<path class="st3" d="M313,172.1c-2.8,0-5.5-1.1-7.6-3.1c-37.4-37.5-37.4-98.3,0-135.8c4.2-4.1,11-4,15.1,0.3c4,4.1,4,10.7,0,14.8
		c-29.2,29.2-29.2,76.4,0,105.6c0,0,0,0,0,0c4.2,4.2,4.2,10.9,0,15.1C318.5,171,315.8,172.1,313,172.1L313,172.1z"/>
	<path class="st3" d="M433.7,172.1c-5.9,0-10.7-4.8-10.7-10.6c0-2.8,1.1-5.6,3.1-7.6c29.2-29.2,29.2-76.4,0-105.6c0,0,0,0,0,0
		c-4.1-4.2-4-11,0.3-15.1c4.1-4,10.7-4,14.8,0c37.4,37.5,37.4,98.3,0,135.8C439.2,170.9,436.5,172.1,433.7,172.1z"/>
	<path class="st3" d="M282.8,202.2c-2.8,0-5.5-1.1-7.6-3.1C221.1,145,221.1,57.2,275.3,3c4.2-4.1,11-4,15.1,0.3c4,4.1,4,10.7,0,14.8
		c-45.8,45.8-45.8,120.1,0,165.9c4.2,4.2,4.2,10.9,0,15.1C288.4,201.1,285.6,202.3,282.8,202.2L282.8,202.2z"/>
	<path class="st3" d="M463.9,202.2c-5.9,0-10.7-4.8-10.7-10.6c0-2.8,1.1-5.6,3.1-7.6c45.8-45.8,45.8-120.1,0-165.9
		c-4.1-4.2-4-11,0.3-15.1c4.1-4,10.7-4,14.8,0c54.1,54.2,54.1,141.9,0,196.1C469.4,201.1,466.7,202.2,463.9,202.2z"/>
</g>
<polygon class="st4" points="513.1,420.8 574.9,535.5 529.9,526.8 504.2,562 468.9,438.4 "/>
<path class="st5" d="M513.1,420.8L469,438.5l9.9,34.8c19.3-2,36.8-9.6,51.1-21.1L513.1,420.8z"/>
<polygon class="st6" points="424.8,420.8 363,535.5 408,526.8 433.6,562 468.9,438.4 "/>
<path class="st4" d="M459,473.2l9.9-34.8l-44.1-17.7L407.9,452C422.2,463.6,439.7,471.3,459,473.2z"/>
<circle class="st7" cx="468.9" cy="376.6" r="70.6"/>
<circle class="st8" cx="468.9" cy="376.6" r="35.3"/>
</svg>
