<?xml version="1.0" encoding="utf-8"?>
<!-- Generator: Adobe Illustrator 21.0.0, SVG Export Plug-In . SVG Version: 6.00 Build 0)  -->
<svg version="1.1" id="Vrstva_1" xmlns="http://www.w3.org/2000/svg" xmlns:xlink="http://www.w3.org/1999/xlink" x="0px" y="0px"
	 viewBox="0 0 593.9 649" style="enable-background:new 0 0 593.9 649;" xml:space="preserve">
<style type="text/css">
	.st0{fill:#03232E;}
	.st1{fill:#07485E;}
	.st2{fill:#0B799D;}
	.st3{fill:#B4D2D7;}
	.st4{fill:#00FF94;}
	.st5{fill:#FFD422;}
	.st6{fill:#EA9D2D;}
	.st7{fill:#D68F29;}
	.st8{fill:#FBB540;}
	.st9{fill:#DC4D41;}
	.st10{fill:#EA6B65;}
</style>
<path class="st0" d="M480.1,128.1l-244.1-20v295.7l244.1-20V128.1z"/>
<g>
	<path class="st1" d="M31.9,128.1v255.7l224.1,20V108.1L31.9,128.1z"/>
	<path class="st1" d="M512,0H256l-20,64.1l20,64.1h256V0z"/>
	<path class="st1" d="M512,320.1V191.9H256L236,256l20,64.1H512z"/>
	<path class="st1" d="M512,512V383.9H256l-20,64.1l20,64.1H512z"/>
</g>
<path class="st2" d="M0,0h256v128.1H0V0z"/>
<path class="st2" d="M0,191.9h256v128.1H0V191.9z"/>
<path class="st2" d="M0,383.9h256V512H0V383.9z"/>
<path class="st3" d="M326.1,49.1h138.1v30H326.1V49.1z"/>
<path class="st3" d="M326.1,241h138.1v30H326.1V241z"/>
<path class="st3" d="M326.1,432.9h138.1v30H326.1V432.9z"/>
<path class="st4" d="M47.8,49.1h31.9v30H47.8V49.1z"/>
<path class="st5" d="M111.6,49.1h31.9v30h-31.9V49.1z"/>
<path class="st4" d="M47.8,241h31.9v30H47.8V241z"/>
<path class="st5" d="M111.6,241h31.9v30h-31.9V241z"/>
<path class="st4" d="M47.8,432.9h31.9v30H47.8V432.9z"/>
<path class="st5" d="M111.6,432.9h31.9v30h-31.9V432.9z"/>
<polygon class="st6" points="532.1,507.8 593.9,622.5 548.9,613.8 523.2,649 487.9,525.4 "/>
<path class="st7" d="M532.1,507.8l-44.1,17.7l9.9,34.8c19.3-2,36.8-9.6,51.1-21.1L532.1,507.8z"/>
<polygon class="st8" points="443.8,507.8 382,622.5 427,613.8 452.6,649 487.9,525.4 "/>
<path class="st6" d="M478,560.2l9.9-34.8l-44.1-17.7l-16.9,31.3C441.2,550.6,458.7,558.3,478,560.2z"/>
<circle class="st9" cx="487.9" cy="463.6" r="70.6"/>
<circle class="st10" cx="487.9" cy="463.6" r="35.3"/>
</svg>
